<svg width="23" height="23" fill="none" xmlns="http://www.w3.org/2000/svg"><path fill-rule="evenodd" clip-rule="evenodd" d="M2.035.533h18.76c.899 0 1.626.704 1.626 1.572v18.79c0 .867-.727 1.572-1.625 1.572H2.035c-.899 0-1.627-.704-1.627-1.572V2.105c0-.868.728-1.572 1.627-1.572Zm12.112 11.793c.738.595 1.55.961 2.416.961 1.166 0 2.118-.95 2.122-2.113a2.122 2.122 0 0 0-2.122-2.117c-1.56 0-2.068 1.502-2.228 2.397l-.008.031-.18.84Zm-1.751-1.997c.628-2.125 2.173-3.417 4.167-3.417 2.352 0 4.268 1.91 4.27 4.253a4.279 4.279 0 0 1-4.269 4.27c-1.1 0-2.06-.334-2.895-.868l-.952 4.472H10.52l1.315-6.165c-.62-.78-1.132-1.655-1.549-2.522v.934c0 2.281-1.861 4.153-4.147 4.153a4.15 4.15 0 0 1-4.14-4.153v-5.57h2.146v5.57a1.998 1.998 0 0 0 3.995 0v-5.57h2.145c.426 1.453 1.151 3.177 2.11 4.613Z" fill="#fff"/></svg>