<svg width="8" height="12" fill="none" xmlns="http://www.w3.org/2000/svg"><path fill-rule="evenodd" clip-rule="evenodd" d="M2.284 3.92c0 .946.743 1.682 1.7 1.682.983 0 1.73-.725 1.729-1.681-.001-.952-.744-1.677-1.723-1.678-.959-.002-1.706.733-1.706 1.677Zm1.712 7.28a24.302 24.302 0 0 1-.2-.261c-.91-1.206-1.77-2.443-2.528-3.747C.855 6.48.472 5.75.206 4.969c-.449-1.322-.145-2.506.72-3.562C1.598.59 2.498.145 3.559.026c1.88-.213 3.655.902 4.24 2.661.163.49.24.992.18 1.507-.047.408-.18.793-.334 1.172-.328.815-.757 1.579-1.215 2.328a39.964 39.964 0 0 1-2.368 3.427l-.064.078" fill="#656565"/></svg>