<svg width="12" height="11" fill="none" xmlns="http://www.w3.org/2000/svg"><path d="M11.282 5.524a1.003 1.003 0 0 0-.189-1.43l-.432-.323a.997.997 0 0 1-.4-.848l.023-.535A.997.997 0 0 0 9.3 1.343h-.534c-.33 0-.637-.173-.825-.448L7.659.447a.988.988 0 0 0-1.407-.26l-.433.315a1 1 0 0 1-.927.118L4.389.43a.995.995 0 0 0-1.289.621l-.165.51c-.11.315-.362.559-.684.645l-.51.142a1.01 1.01 0 0 0-.685 1.265l.165.511c.103.322.032.668-.172.928l-.33.424A.993.993 0 0 0 .906 6.9l.432.322a.997.997 0 0 1 .401.849l-.023.534a1.002 1.002 0 0 0 .982 1.046h.535c.33 0 .636.172.825.448l.29.448a.99.99 0 0 0 1.408.259l.432-.314a.978.978 0 0 1 .927-.126l.503.188a.99.99 0 0 0 1.29-.62l.164-.511a.977.977 0 0 1 .676-.645l.511-.133a.998.998 0 0 0 .684-1.266l-.165-.51a.99.99 0 0 1 .173-.928l.33-.417Zm-6.02 2.209-2.013-2.02.967-.967 1.045 1.045 2.523-2.523.967.975-3.49 3.49Z" fill="#1F57C3"/></svg>